PathFileType	4	(X/Y/Z)	N:\Shared_Data\Ergonomics\New Model Testing\10-03-21\Test Cal 01.trc																																																																																																																																																													
DataRate	CameraRate	NumFrames	NumMarkers	Units	OrigDataRate	OrigDataStartFrame	OrigNumFrames	
100	100	6	59	mm	100	1445	148
Frame#	Time	R_Knee_Med			R_Knee_Lat			R_Thigh_Upper			R_Thigh_Front			R_Thigh_Rear			L_Knee_Med			L_Knee_Lat			L_Thigh_Upper			L_Thigh_Front			L_Thigh_Rear			R_Ankle_Med			R_Ankle_Lat			R_Shank_Upper			R_Shank_Front			R_Shank_Rear			L_Ankle_Med			L_Ankle_Lat			L_Shank_Upper			L_Shank_Front			L_Shank_Rear			R_Heel			R_MTP1			R_MTP5			L_Heel			L_MTP1			L_MTP5			V_Sacral			R_Pelvis			R_ASIS			L_ASIS			L_Pelvis			Clavicle			Chest			R_Acromium			L_Acromium			R_Elbow			R_Arm_Parallel			R_Arm_Adjacent			L_Elbow			L_Arm_Parallel			L_Arm_Adjacent			R_Forearm2			R_Forearm1			R_Forearm_Base			L_Forearm2			L_Forearm1			L_Forearm_Base			R_Hand_Lower			R_Hand_Med			R_Hand_Lat			L_Hand_Lower			L_Hand_Med			L_Hand_Lat			LAJC			RAJC			LHJC			RHJC			LKJC			RKJC			
		X1	Y1	Z1	X2	Y2	Z2	X3	Y3	Z3	X4	Y4	Z4	X5	Y5	Z5	X6	Y6	Z6	X7	Y7	Z7	X8	Y8	Z8	X9	Y9	Z9	X10	Y10	Z10	X11	Y11	Z11	X12	Y12	Z12	X13	Y13	Z13	X14	Y14	Z14	X15	Y15	Z15	X16	Y16	Z16	X17	Y17	Z17	X18	Y18	Z18	X19	Y19	Z19	X20	Y20	Z20	X21	Y21	Z21	X22	Y22	Z22	X23	Y23	Z23	X24	Y24	Z24	X25	Y25	Z25	X26	Y26	Z26	X27	Y27	Z27	X28	Y28	Z28	X29	Y29	Z29	X30	Y30	Z30	X31	Y31	Z31	X32	Y32	Z32	X33	Y33	Z33	X34	Y34	Z34	X35	Y35	Z35	X36	Y36	Z36	X37	Y37	Z37	X38	Y38	Z38	X39	Y39	Z39	X40	Y40	Z40	X41	Y41	Z41	X42	Y42	Z42	X43	Y43	Z43	X44	Y44	Z44	X45	Y45	Z45	X46	Y46	Z46	X47	Y47	Z47	X48	Y48	Z48	X49	Y49	Z49	X50	Y50	Z50	X51	Y51	Z51	X52	Y52	Z52	X53	Y53	Z53	X54	Y54	Z54	X55	Y55	Z55	X56	Y56	Z56	X57	Y57	Z57	X58	Y58	Z58	X59	Y59	Z59	

1445	14.44	-26.880922	498.34103	12.620176	-38.278152	492.32932	146.75496	58.815796	704.82965	127.1307	48.436512	593.9104	71.924797	14.494708	592.53815	137.82257	-24.835802	501.34348	-63.984184	-76.547554	521.09631	-192.82787	27.083565	720.47552	-182.97919	31.786621	610.85809	-133.73691	-22.331745	605.73151	-192.87062	-67.652763	95.988358	50.988846	-109.36604	79.209572	145.8378	-5.9322906	359.16931	110.12209	-32.69191	243.78783	82.592621	-45.548599	246.47722	144.48431	-82.451118	103.50234	-123.05231	-137.26665	73.47123	-203.27094	-42.438671	344.69012	-183.64316	-53.060295	230.19414	-148.4709	-96.097473	246.3459	-206.95459	-158.14458	52.004196	85.000359	60.801514	46.469341	94.656036	18.047886	26.706171	169.83051	-168.07924	56.711117	-152.68842	24.929571	58.18153	-154.1171	-2.8538287	19.647543	-231.42609	-199.75066	994.81635	-17.672131	-16.676794	1025.8777	185.96388	40.33836	994.85571	122.71489	23.512535	985.27429	-142.53899	-49.952568	1021.8078	-213.33766	58.536076	1534.4373	-20.1693	63.593552	1341.2368	-19.805788	-37.936275	1492.7788	172.38194	-73.130966	1504.2794	-177.56607	-113.78744	1154.4944	278.22977	-109.1722	1229.6178	272.97726	-26.912144	1229.5255	252.21097	-155.47356	1159.2831	-290.83038	-150.91919	1235.1929	-292.29626	-70.022186	1246.8915	-285.06738	-10.969551	1137.6005	276.16666	10.253141	1014.4697	291.63904	34.498264	919.55359	300.20886	-37.719761	1120.8026	-301.88553	-19.719925	1032.2736	-313.42233	4.6834326	947.12549	-318.69379	42.025585	865.19775	308.92957	80.713066	827.38324	273.42032	19.655779	819.00275	325.16342	18.877037	885.62421	-321.06824	52.672619	843.53339	-302.49271	-4.4159598	837.97595	-340.45282	-109.858884	88.486785	-163.161625	-88.5094015	87.598965	98.413323	-41.45915671	897.6141975	-97.23719968	-29.43044936	904.463912	92.39161776	-50.691678	511.219895	-128.406027	-32.579537	495.335175	79.687568
1446	14.45	-26.827326	498.35779	12.577872	-38.28157	492.30945	146.68283	58.7272	704.84601	127.09472	48.416363	593.95081	71.871651	14.452646	592.5412	137.76012	-24.859201	501.36923	-64.037766	-76.585365	521.10004	-192.87617	27.011463	720.50818	-183.05544	31.710812	610.8924	-133.81146	-22.396996	605.73969	-192.93558	-67.659164	95.990631	50.98299	-109.37363	79.204796	145.8298	-5.9504194	359.17801	110.09635	-32.723572	243.7713	82.548386	-45.575642	246.47755	144.44156	-82.450645	103.5177	-123.04704	-137.26955	73.464035	-203.29378	-42.466743	344.68283	-183.68164	-53.075451	230.20276	-148.49922	-96.108551	246.34076	-206.98096	-158.12738	51.947929	85.019905	60.787312	46.461586	94.636765	18.033098	26.712208	169.84203	-168.07172	56.685951	-152.67906	24.930326	58.170509	-154.11906	-2.8504763	19.657269	-231.43736	-199.886	994.77362	-17.764006	-16.802534	1025.8367	185.8772	40.18943	994.85107	122.6314	23.555058	985.39789	-142.55174	-50.060379	1021.8633	-213.38957	58.566658	1534.5726	-20.161983	63.5005	1341.2339	-19.797567	-38.051674	1492.7598	172.43866	-73.231049	1504.3014	-177.55859	-113.89352	1154.4879	278.27945	-109.25975	1229.6049	273.02286	-27.043417	1229.507	252.27841	-155.66026	1159.3201	-290.79227	-151.0432	1235.2145	-292.24432	-70.204285	1246.8942	-285.05768	-11.115842	1137.5834	276.25674	10.170874	1014.4568	291.71472	34.324356	919.49762	300.25195	-37.764938	1120.9048	-301.77139	-19.915968	1032.2438	-313.42746	4.4520144	947.15503	-318.69391	41.859657	865.17493	309.0101	80.552895	827.39148	273.51089	19.467543	818.94788	325.21201	18.630102	885.63849	-321.11713	52.389191	843.51202	-302.55856	-4.6857061	837.98059	-340.32245	-109.8600975	88.4908675	-163.17041	-88.516397	87.5977135	98.406395	-41.4250271	897.709692	-97.35296169	-29.53288919	904.4678985	92.23005794	-50.722283	511.234635	-128.456968	-32.554448	495.33362	79.630351
1447	14.46	-26.803482	498.37726	12.534691	-38.281914	492.29813	146.57143	58.663074	704.86023	127.04696	48.367931	593.97174	71.822601	14.422981	592.54797	137.70248	-24.938873	501.37253	-64.070168	-76.654541	521.11945	-192.92995	26.864956	720.37708	-183.37341	31.651114	610.93732	-133.8476	-22.463985	605.77515	-193.00098	-67.669647	95.966881	50.965755	-109.38499	79.20253	145.81859	-5.9677463	359.18478	110.0696	-32.728363	243.76663	82.529709	-45.587284	246.49434	144.41066	-82.178589	103.5127	-123.03768	-137.27423	73.466614	-203.29335	-42.501884	344.69196	-183.70889	-53.088184	230.22096	-148.51231	-96.122368	246.34142	-207.01025	-158.17393	51.999008	85.0103	60.78603	46.465363	94.629921	18.007614	26.695234	169.88277	-168.08034	56.68454	-152.67784	24.930197	58.186897	-154.12613	-2.8502066	19.652243	-231.4395	-200.01874	994.75214	-17.870548	-16.946806	1025.7802	185.80437	40.029358	994.84033	122.56597	23.427933	985.42664	-142.61407	-50.179298	1021.9404	-213.48135	58.487923	1534.5718	-20.141762	63.386997	1341.2469	-19.770857	-38.163963	1492.7402	172.46161	-73.318466	1504.3478	-177.56145	-114.03548	1154.4839	278.3176	-109.37171	1229.5684	273.0184	-27.173521	1229.4849	252.32271	-155.84363	1159.3724	-290.76404	-151.18172	1235.2404	-292.20261	-70.404137	1246.8787	-285.04926	-11.252939	1137.5647	276.3364	9.9901199	1014.4274	291.77246	34.150688	919.45776	300.30627	-37.945694	1120.9442	-301.76608	-20.077003	1032.3163	-313.41208	4.2470102	947.17743	-318.68216	41.690384	865.12976	309.08893	80.345322	827.33276	273.59839	19.307434	818.92712	325.22067	18.372032	885.63873	-321.12973	52.15638	843.38177	-302.83145	-4.9508834	837.99969	-340.23819	-109.7264095	88.489657	-163.165515	-88.5273185	87.5847055	98.3921725	-41.54342102	897.7245818	-97.43800283	-29.67481489	904.4545691	92.14315946	-50.796707	511.24599	-128.500059	-32.542698	495.337695	79.5530605
1448	14.47	-26.831892	498.37433	12.490277	-38.49054	492.45679	147.01236	58.577297	704.8797	127.00288	48.684994	594.43756	71.58844	14.364342	592.56598	137.67288	-25.013338	501.40356	-64.10463	-76.703659	521.12781	-192.97273	26.794853	720.41577	-183.42096	31.601559	610.9704	-133.89095	-22.531794	605.78882	-193.02504	-67.675369	95.968117	50.96365	-109.39735	79.206993	145.83534	-5.980938	359.19037	110.05767	-32.739902	243.73093	82.534134	-45.600555	246.49463	144.39627	-82.1903	103.51581	-123.02937	-137.26862	73.465805	-203.29903	-42.531773	344.70462	-183.71576	-53.112247	230.22784	-148.53653	-96.14164	246.33604	-207.01053	-158.16367	51.963078	85.006844	60.773186	46.468361	94.605331	18.026545	26.714172	169.82983	-168.07661	56.693455	-152.68318	24.927418	58.192028	-154.123	-2.8480241	19.660114	-231.45114	-200.1606	994.71185	-17.901413	-17.118397	1025.7598	185.75531	39.872353	994.82422	122.49583	23.301268	985.45203	-142.6743	-50.316696	1021.9913	-213.51117	58.417072	1534.5747	-20.105993	63.25745	1341.2592	-19.749279	-38.27866	1492.7113	172.47037	-73.446167	1504.3735	-177.56828	-114.157	1154.4813	278.34985	-109.49609	1229.5508	273.00119	-27.293892	1229.4645	252.35217	-156.01486	1159.417	-290.75021	-151.30534	1235.2767	-292.15671	-70.553131	1246.9166	-285.02924	-11.374905	1137.5417	276.37662	9.5274134	1014.5673	291.99182	33.979313	919.43085	300.37881	-38.131748	1120.9653	-301.81305	-20.270594	1032.3855	-313.40454	4.0417242	947.23749	-318.67767	41.528027	865.09961	309.13226	80.189613	827.29987	273.68619	19.136024	818.8988	325.23633	18.144802	885.65356	-321.11627	51.917496	843.41241	-302.85287	-5.1877832	838.02417	-340.17053	-109.72946	88.4908075	-163.1642	-88.5363595	87.587555	98.399495	-41.65604856	897.7327165	-97.52212128	-29.80908762	904.4330604	92.05268161	-50.8584985	511.265685	-128.53868	-32.661216	495.41556	79.7513185
1449	14.48	-26.856989	498.35251	12.447399	-38.487854	492.45282	147.00322	58.511749	704.90167	126.94431	48.684071	594.47296	71.52961	14.34868	592.57135	137.6161	-25.126062	501.40656	-64.133125	-76.751167	521.11151	-192.91338	26.408384	720.47974	-183.50238	31.522207	610.98334	-133.93307	-22.604652	605.79968	-193.07248	-67.692741	95.966736	50.964638	-109.38217	79.202934	145.83369	-5.9811015	359.17206	110.04453	-32.751114	243.7103	82.533203	-45.610146	246.47983	144.37677	-82.197571	103.52409	-123.03661	-137.28221	73.464531	-203.31146	-42.57893	344.6687	-183.71992	-53.138573	230.22752	-148.55522	-96.160431	246.33067	-207.02315	-158.1877	51.954102	85.008888	60.767937	46.469135	94.602509	17.974577	26.691116	169.89432	-168.08008	56.6847	-152.6915	24.919275	58.183216	-154.13757	-2.8532276	19.653498	-231.44125	-200.28935	994.67938	-17.949883	-17.280041	1025.7227	185.69772	39.734089	994.81238	122.42769	23.178087	985.47418	-142.72174	-50.462116	1022.0414	-213.54346	58.328339	1534.5856	-20.082384	63.117912	1341.2775	-19.76001	-38.402683	1492.7089	172.51044	-73.585007	1504.4174	-177.49045	-114.29071	1154.4758	278.37436	-109.62181	1229.5558	273.03348	-27.414274	1229.4563	252.36449	-156.15733	1159.4744	-290.73813	-151.49924	1235.3624	-292.13953	-70.696587	1246.9767	-285.01175	-11.494895	1137.5311	276.39874	9.3741608	1014.5598	292.05417	33.82803	919.40778	300.45749	-38.299332	1120.9736	-301.85226	-20.503359	1032.4021	-313.41382	3.8388236	947.2771	-318.65109	41.384125	865.08087	309.21143	80.022888	827.24023	273.74619	18.952175	818.87067	325.28293	17.934971	885.69598	-321.11639	51.649265	843.43274	-302.8913	-5.4205527	838.06848	-340.21313	-109.7398905	88.4943105	-163.174035	-88.5374555	87.584835	98.399164	-41.76576845	897.7443878	-97.58858687	-29.92951269	904.4204756	91.97266519	-50.9386145	511.259035	-128.5232525	-32.6724215	495.402665	79.7253095
1450	14.49	-26.859259	498.35309	12.428175	-38.348915	492.31403	146.54578	58.463673	704.92419	126.89443	48.677479	594.49786	71.489761	14.345519	592.58398	137.58141	-25.18495	501.42938	-64.144661	-76.814041	521.1095	-192.94511	26.508076	720.46613	-183.51633	31.398769	610.96423	-133.99649	-22.686886	605.80646	-193.11353	-67.686165	95.959518	50.962273	-109.39781	79.192665	145.83232	-5.9815254	359.17963	110.0534	-32.766453	243.67609	82.548096	-45.610451	246.46593	144.35075	-82.209785	103.53863	-123.04492	-137.28139	73.44632	-203.30949	-42.62281	344.66983	-183.73828	-53.173553	230.24223	-148.57072	-96.1754	246.32736	-207.03595	-158.15189	51.898338	85.039452	60.754833	46.461178	94.589592	17.987436	26.702381	169.88866	-168.08423	56.683128	-152.69244	24.907879	58.183117	-154.13019	-2.8542206	19.659878	-231.45619	-200.51811	994.61786	-17.96973	-17.432199	1025.6799	185.63643	39.596783	994.79419	122.35513	23.051937	985.49249	-142.7944	-50.618282	1022.0975	-213.5874	58.214813	1534.5698	-20.052448	62.977821	1341.2832	-19.757774	-38.532024	1492.7142	172.56197	-73.710243	1504.4536	-177.45662	-114.41342	1154.475	278.40512	-109.77354	1229.5367	273.05957	-27.526781	1229.4399	252.36217	-156.32597	1159.5067	-290.73013	-151.62009	1235.3976	-292.12421	-70.850372	1246.9695	-285.02466	-11.61021	1137.521	276.41461	9.2667255	1014.5763	292.14578	33.668613	919.40869	300.53296	-38.488819	1121.0143	-301.8446	-20.734016	1032.3959	-313.44983	3.6564181	947.32343	-318.64337	41.231564	865.09381	309.26788	79.847916	827.1861	273.81497	18.773338	818.89343	325.46643	17.722885	885.72748	-321.09335	51.457321	843.51971	-302.77905	-5.6052556	838.1087	-340.24454	-109.7455875	88.492475	-163.177205	-88.5419875	87.5760915	98.3972965	-41.8905204	897.7379964	-97.67588114	-30.0622339	904.3879932	91.88554511	-50.9994955	511.26944	-128.5448855	-32.604087	495.33356	79.4869775
